<?xml version="1.0" encoding="UTF-8"?>
<svg version="1.1" xmlns="http://www.w3.org/2000/svg" width="512" height="512">
<path d="M0 0 C4.41074704 -0.09961729 8.82088095 -0.17181669 13.23242188 -0.21972656 C14.7299339 -0.23971919 16.22736908 -0.26692299 17.72460938 -0.30175781 C27.44166575 -0.52201109 34.36952216 -0.37926054 42.35546875 5.83203125 C48.37448671 12.33873084 50.93315843 19.54637766 53 28 C53.16371094 28.66080566 53.32742188 29.32161133 53.49609375 30.00244141 C64.59205589 77.35514762 46.54887856 126.49810933 23 167 C23.433125 167.62648437 23.86625 168.25296875 24.3125 168.8984375 C25.1478125 170.12433594 25.1478125 170.12433594 26 171.375 C26.8353125 172.59316406 26.8353125 172.59316406 27.6875 173.8359375 C29 176 29 176 29 178 C29.99257813 177.40832031 30.98515625 176.81664062 32.0078125 176.20703125 C53.24810902 163.76707565 76.90700309 157.38884071 101.5 163.5 C119.33688467 168.82499897 134.28715418 178.34665447 147.828125 190.98046875 C149.73204605 192.75084138 151.67891151 194.41385768 153.6875 196.0625 C157.54957156 199.35608906 160.76140661 203.10399983 164 207 C164.68578125 207.79792969 165.3715625 208.59585938 166.078125 209.41796875 C167.12226562 210.66513672 167.12226562 210.66513672 168.1875 211.9375 C169.13689453 213.06478516 169.13689453 213.06478516 170.10546875 214.21484375 C170.73066406 215.13394531 171.35585938 216.05304688 172 217 C172.36915527 217.53890869 172.73831055 218.07781738 173.11865234 218.63305664 C177.70549507 226.77921629 176.42649954 236.53188453 176.25 245.5625 C176.22990747 247.35219359 176.21166156 249.14190892 176.1953125 250.93164062 C176.15152721 255.28830278 176.08265224 259.64390894 176 264 C172.98556985 262.59213375 170.40330773 260.93552319 167.734375 258.953125 C166.92613281 258.355 166.11789062 257.756875 165.28515625 257.140625 C164.03025391 256.20476562 164.03025391 256.20476562 162.75 255.25 C161.92886719 254.6415625 161.10773438 254.033125 160.26171875 253.40625 C155.16052966 249.62280072 150.07707253 245.81573182 145 242 C142.18320635 243.27774425 140.18559473 244.58399454 138.0546875 246.8203125 C137.53519531 247.35527344 137.01570313 247.89023438 136.48046875 248.44140625 C135.95066406 248.99699219 135.42085938 249.55257812 134.875 250.125 C132.95428568 252.13783491 131.01570493 254.07832212 129 256 C128.34 256 127.68 256 127 256 C119.575 241.15 119.575 241.15 112 226 C107.25079313 230.07074875 102.97157184 233.97874389 98.69921875 238.4609375 C97 240 97 240 95 240 C87.575 225.15 87.575 225.15 80 210 C75.18917605 214.12356338 71.12646588 217.90109757 66.9921875 222.55859375 C65 224 65 224 62.81616211 223.80126953 C59.3095135 222.80353908 56.17978823 221.2760526 52.94921875 219.62109375 C52.29041214 219.28956802 51.63160553 218.9580423 50.95283508 218.61647034 C48.86149094 217.56244158 46.77448954 216.5001205 44.6875 215.4375 C43.26525306 214.71884842 41.8427298 214.00074341 40.41992188 213.28320312 C36.9433833 211.52844785 33.4707137 209.76624636 30 208 C26.80260791 211.08991672 24.39116688 214.24245204 22 218 C22.97839844 218.60134766 22.97839844 218.60134766 23.9765625 219.21484375 C30.22742131 223.28066784 34.6358633 227.28309192 38 234 C38.15339844 235.02996094 38.30679687 236.05992187 38.46484375 237.12109375 C39.67484012 240.13604094 39.67484012 240.13604094 42.13134766 240.84985352 C45.09740765 241.52565453 48.05662673 242.03210033 51.0625 242.5 C77.58120236 247.33749919 105.17469854 258.48538192 121.375 281.25390625 C132.96840927 298.2700392 139.20586633 318.0650564 135.30859375 338.65234375 C132.10810579 349.91431185 126.2365651 358.94088478 119.25 368.1875 C118.67064697 368.95545898 118.09129395 369.72341797 117.49438477 370.51464844 C116.94451904 371.22524414 116.39465332 371.93583984 115.828125 372.66796875 C115.3321582 373.31016357 114.83619141 373.9523584 114.32519531 374.61401367 C113.88788086 375.07138916 113.45056641 375.52876465 113 376 C112.34 376 111.68 376 111 376 C110.79318604 374.95545654 110.58637207 373.91091309 110.37329102 372.8347168 C109.60555029 368.95981576 108.83526481 365.08542425 108.06420898 361.21118164 C107.73083155 359.53423635 107.39814462 357.85715364 107.06616211 356.17993164 C106.58889277 353.76932913 106.10914336 351.35923155 105.62890625 348.94921875 C105.48095108 348.19912033 105.33299591 347.44902191 105.18055725 346.67619324 C104.58786013 343.71206843 103.95707021 340.87121062 103 338 C102.34402832 338.66644531 101.68805664 339.33289063 101.01220703 340.01953125 C98.58227326 342.48349529 96.14793959 344.9429342 93.71044922 347.39941406 C92.65525491 348.4646826 91.60186036 349.53173697 90.55029297 350.60058594 C89.04080273 352.13426216 87.52501301 353.66145568 86.0078125 355.1875 C84.64100342 356.57001953 84.64100342 356.57001953 83.24658203 357.98046875 C81 360 81 360 79 360 C78.79318604 358.95545654 78.58637207 357.91091309 78.37329102 356.8347168 C77.60555029 352.95981576 76.83526481 349.08542425 76.06420898 345.21118164 C75.73083155 343.53423635 75.39814462 341.85715364 75.06616211 340.17993164 C74.58889277 337.76932913 74.10914336 335.35923155 73.62890625 332.94921875 C73.48095108 332.19912033 73.33299591 331.44902191 73.18055725 330.67619324 C72.58786013 327.71206843 71.95707021 324.87121062 71 322 C70.37432129 322.42410156 69.74864258 322.84820312 69.10400391 323.28515625 C66.28086556 325.19488001 63.4530201 327.09751375 60.625 329 C59.64015625 329.66773438 58.6553125 330.33546875 57.640625 331.0234375 C56.69960938 331.65507812 55.75859375 332.28671875 54.7890625 332.9375 C53.91975098 333.52402344 53.05043945 334.11054688 52.15478516 334.71484375 C50 336 50 336 48 336 C47.67 326.1 47.34 316.2 47 306 C40.1755518 310.60238975 40.1755518 310.60238975 33.35791016 315.21484375 C32.08633057 316.06755859 32.08633057 316.06755859 30.7890625 316.9375 C29.91975098 317.52402344 29.05043945 318.11054688 28.15478516 318.71484375 C26 320 26 320 24 320 C24 309.77 24 299.54 24 289 C17.26675536 291.29704392 17.26675536 291.29704392 10.53808594 293.60742188 C9.27399902 294.0337793 9.27399902 294.0337793 7.984375 294.46875 C6.69611816 294.90864258 6.69611816 294.90864258 5.38183594 295.35742188 C3 296 3 296 -1 296 C-1.50354867 293.56318413 -2.00296756 291.12564561 -2.5 288.6875 C-2.64308594 287.99720703 -2.78617187 287.30691406 -2.93359375 286.59570312 C-3.52625044 283.67475227 -4 280.98891878 -4 278 C-4.70125 277.7525 -5.4025 277.505 -6.125 277.25 C-9.36434408 275.84158953 -12.06678666 273.95547556 -15 272 C-15.66 272 -16.32 272 -17 272 C-45.76893262 323.72430651 -73.73476672 382.32468613 -62.36376953 442.97949219 C-61.82430543 445.97587133 -61.40990738 448.98340008 -61 452 C-59.88141602 451.78065796 -59.88141602 451.78065796 -58.74023438 451.55688477 C-55.32736214 450.88929857 -51.91369457 450.22586784 -48.5 449.5625 C-46.74042969 449.21735352 -46.74042969 449.21735352 -44.9453125 448.86523438 C-22.1232675 444.44186048 0.58466707 444.19392467 23.12011719 450.22949219 C27.33127654 451.3561808 31.56278318 452.39813513 35.79345703 453.44873047 C37.8720364 453.96813792 39.94869143 454.49533274 42.02294922 455.03173828 C64.67598647 460.86079409 87.66899405 457.80723199 110.53222656 454.77880859 C132.08539494 451.96961475 156.97893912 450.31929275 176 463 C176 473.89 176 484.78 176 496 C11.99 496 -152.02 496 -321 496 C-321 490.06 -321 484.12 -321 478 C-318.999375 477.67 -316.99875 477.34 -314.9375 477 C-300.94621351 473.91883581 -290.46303776 466.06608899 -279.27636719 457.51318359 C-257.21522511 440.65162302 -235.20778787 434.43111214 -207.5 438 C-191.43591007 440.29508262 -175.71519594 445.1040353 -160.1875 449.71484375 C-151.26460808 452.36192447 -142.40808364 454.67553012 -133.25 456.375 C-132.35667969 456.54290039 -131.46335938 456.71080078 -130.54296875 456.88378906 C-124.95034792 457.86017799 -119.6762189 458.14937418 -114 458 C-114.13277344 456.98164063 -114.26554688 455.96328125 -114.40234375 454.9140625 C-115.74529884 444.28720052 -116.59989659 433.70341996 -117 423 C-117.06380859 421.44345703 -117.06380859 421.44345703 -117.12890625 419.85546875 C-117.66506762 393.15463243 -113.20631587 366.34441985 -105 341 C-104.71672852 340.12021484 -104.43345703 339.24042969 -104.14160156 338.33398438 C-94.01448782 307.47146537 -77.70707695 280.78181481 -57 256 C-57.65226562 255.69707031 -58.30453125 255.39414062 -58.9765625 255.08203125 C-68.22226008 250.65009657 -75.05512246 245.76418446 -79 236 C-80.18200801 230.7368869 -80.61352826 225.37062459 -81 220 C-82.24716797 220.433125 -82.24716797 220.433125 -83.51953125 220.875 C-84.60621094 221.24625 -85.69289062 221.6175 -86.8125 222 C-87.89144531 222.37125 -88.97039062 222.7425 -90.08203125 223.125 C-93 224 -93 224 -96 224 C-94.92385501 220.41285005 -93.61483178 217.11210805 -91.921875 213.78125 C-91.5619043 213.07033203 -91.20193359 212.35941406 -90.83105469 211.62695312 C-90.55680664 211.09005859 -90.28255859 210.55316406 -90 210 C-91.04454346 210.42410156 -92.08908691 210.84820312 -93.1652832 211.28515625 C-97.03768927 212.85582313 -100.91282139 214.41966327 -104.78881836 215.98144531 C-106.46665508 216.65861807 -108.14374466 217.33764509 -109.82006836 218.01855469 C-112.22836849 218.99641435 -114.63926834 219.96759519 -117.05078125 220.9375 C-117.80087967 221.24373291 -118.55097809 221.54996582 -119.32380676 221.86547852 C-122.36012991 223.08040064 -124.69783464 224 -128 224 C-128.33 216.74 -128.66 209.48 -129 202 C-132.98421425 204.32840356 -136.96797771 206.65754704 -140.95068359 208.98852539 C-142.30232235 209.77931618 -143.65420507 210.56969014 -145.00634766 211.35961914 C-146.96322787 212.50294051 -148.91927004 213.64768106 -150.875 214.79296875 C-151.50575439 215.16163055 -152.13650879 215.53029236 -152.78637695 215.91012573 C-156.15621151 217.88761443 -159.47283264 219.92377359 -162.75 222.05078125 C-166 224 -166 224 -169 224 C-169.31022095 222.74340576 -169.31022095 222.74340576 -169.62670898 221.46142578 C-170.39451449 218.35613655 -171.16443171 215.25138085 -171.93579102 212.14697266 C-172.26932295 210.80278215 -172.60201018 209.45838176 -172.93383789 208.11376953 C-173.41070441 206.1820681 -173.89085289 204.2511778 -174.37109375 202.3203125 C-174.8031311 200.57645264 -174.8031311 200.57645264 -175.24389648 198.79736328 C-175.88125691 196.07220275 -175.88125691 196.07220275 -177 194 C-177.59425781 194.4532666 -178.18851563 194.9065332 -178.80078125 195.37353516 C-181.53360431 197.45768462 -184.26679969 199.54134529 -187 201.625 C-187.93457031 202.33785156 -188.86914062 203.05070313 -189.83203125 203.78515625 C-191.67965477 205.19348467 -193.5285939 206.60008894 -195.37890625 208.00488281 C-197.05881351 209.28359016 -198.73378082 210.56882928 -200.40234375 211.86230469 C-201.11519531 212.41047852 -201.82804687 212.95865234 -202.5625 213.5234375 C-203.18253906 214.00474121 -203.80257812 214.48604492 -204.44140625 214.98193359 C-206 216 -206 216 -208 216 C-208 205.77 -208 195.54 -208 185 C-210.63613281 186.0828125 -213.27226562 187.165625 -215.98828125 188.28125 C-218.5394464 189.32498781 -221.09133947 190.36692593 -223.64331055 191.40869141 C-225.41816934 192.1343494 -227.19226389 192.86187951 -228.96557617 193.59130859 C-231.51282922 194.63871055 -234.06274378 195.67937607 -236.61328125 196.71875 C-237.40712723 197.04685669 -238.20097321 197.37496338 -239.01887512 197.7130127 C-244.65838488 200 -244.65838488 200 -248 200 C-247.36032232 193.69145459 -246.04374602 187.75303103 -244.4375 181.625 C-243.97580154 179.84688857 -243.51606515 178.06826615 -243.05859375 176.2890625 C-242.85548584 175.51256348 -242.65237793 174.73606445 -242.44311523 173.93603516 C-241.9256305 172.00608504 -241.9256305 172.00608504 -242 170 C-242.73249466 170.27783829 -243.46498932 170.55567657 -244.21968079 170.8419342 C-251.11714754 173.45628986 -258.01788719 176.06172001 -264.92249775 178.65714359 C-268.47226939 179.99185239 -272.0206656 181.32999699 -275.56616211 182.67602539 C-278.98662781 183.97444192 -282.41038406 185.26379031 -285.83662987 186.54687309 C-287.14440854 187.03843956 -288.45096011 187.53328328 -289.75625038 188.03141975 C-291.5820413 188.72756004 -293.41262824 189.41108236 -295.2434082 190.09399414 C-296.28487503 190.48704239 -297.32634186 190.88009064 -298.39936829 191.28504944 C-301 192 -301 192 -304 191 C-298.72775533 185.54862504 -293.42695703 180.12619675 -288.10644531 174.72192383 C-286.30402741 172.88454663 -284.50797027 171.04090519 -282.71875 169.19067383 C-263.72486677 149.56613432 -263.72486677 149.56613432 -251 145 C-249.53723633 144.42125122 -249.53723633 144.42125122 -248.04492188 143.83081055 C-245.23860439 142.7601937 -242.42035456 141.79848813 -239.5625 140.875 C-238.54462402 140.54226074 -237.52674805 140.20952148 -236.47802734 139.86669922 C-194.91206005 126.65600895 -148.68693919 124.50928944 -108.75 144.09375 C-106.12776746 145.28282679 -106.12776746 145.28282679 -104.11230469 144.25585938 C-99.96101169 141.78773048 -96.13696937 138.85924778 -92.25 136 C-91.36183594 135.35804688 -90.47367188 134.71609375 -89.55859375 134.0546875 C-88.71941406 133.43851563 -87.88023437 132.82234375 -87.015625 132.1875 C-85.85981934 131.34251953 -85.85981934 131.34251953 -84.68066406 130.48046875 C-84.12604492 129.99191406 -83.57142578 129.50335938 -83 129 C-83 128.34 -83 127.68 -83 127 C-85.49854767 126.34807312 -87.9986137 125.70336936 -90.5 125.0625 C-91.19609375 124.88009766 -91.8921875 124.69769531 -92.609375 124.50976562 C-100.86301817 122.40814352 -109.02020371 121.8134212 -117.5 121.4375 C-118.87671875 121.37272461 -118.87671875 121.37272461 -120.28125 121.30664062 C-122.52072061 121.20166544 -124.76028092 121.09950752 -127 121 C-127 120.01 -127 119.02 -127 118 C-125.07226562 116.37426758 -125.07226562 116.37426758 -122.40625 114.64453125 C-121.45878906 114.02255859 -120.51132813 113.40058594 -119.53515625 112.75976562 C-118.53355469 112.11716797 -117.53195313 111.47457031 -116.5 110.8125 C-115.49839844 110.15830078 -114.49679688 109.50410156 -113.46484375 108.83007812 C-110.98247558 107.21062842 -108.49417281 105.60118566 -106 104 C-113.17351791 96.29790709 -121.20103995 95.58740676 -131.41796875 95.05078125 C-140.94252516 94.83505691 -150.49292628 95.47911299 -160 96 C-156.04805802 91.7701871 -151.75709948 88.52994829 -147 85.25 C-146.25177979 84.72921875 -145.50355957 84.2084375 -144.73266602 83.671875 C-143.21262868 82.6145704 -141.69123659 81.55921065 -140.16845703 80.50585938 C-138.19571706 79.1359134 -136.23427003 77.75177256 -134.27734375 76.359375 C-120.56837637 66.64011139 -108.86319498 62.43681621 -92 64 C-74.43244927 67.38773784 -60.67390471 81.26733519 -48 93 C-47.40832031 93.5259375 -46.81664062 94.051875 -46.20703125 94.59375 C-28.96036314 110.65240535 -17.89061379 133.83194621 -15 157 C-13.30025431 155.58186898 -11.61987068 154.14954898 -9.9609375 152.68359375 C-8 151 -8 151 -6.1640625 149.72265625 C-4.246271 148.24154497 -3.20179233 147.11652 -2 145 C-1.55896029 134.92135682 -4.15455648 124.5052377 -5.91870117 114.63134766 C-6.26434219 112.68475485 -6.60294922 110.73691725 -6.94140625 108.7890625 C-7.14451416 107.65162598 -7.34762207 106.51418945 -7.55688477 105.34228516 C-8 102 -8 102 -8 95 C-3.38 92.69 1.24 90.38 6 88 C4.57014016 83.71042048 3.20644126 80.19234977 1.1796875 76.234375 C0.37724609 74.65269531 0.37724609 74.65269531 -0.44140625 73.0390625 C-0.99699219 71.95367187 -1.55257813 70.86828125 -2.125 69.75 C-3.23541663 67.57998673 -4.3423767 65.40820004 -5.4453125 63.234375 C-5.93531738 62.27756836 -6.42532227 61.32076172 -6.93017578 60.33496094 C-8 58 -8 58 -8 56 C2.23 56 12.46 56 23 56 C19.25569925 38.41806603 12.07117824 23.0842433 3.09912109 7.55908203 C0 2.18521838 0 2.18521838 0 0 Z M-94 152 C-91.15600392 155.00310076 -88.20314342 157.32983116 -84.8125 159.6875 C-79.18148747 163.86066757 -74.20696941 168.48701453 -69.25 173.4375 C-68.51088379 174.17436035 -67.77176758 174.9112207 -67.01025391 175.67041016 C-63.1373697 179.604505 -59.79486973 183.50848424 -56.6875 188.0625 C-54.44135905 191.10018719 -53.62774448 191.8803924 -49.86328125 192.59765625 C-46.83409467 192.62228378 -43.99274085 192.44891113 -41 192 C-41.0388919 182.86040307 -43.89586497 176.75031799 -49.8359375 169.875 C-60.33920857 159.57294101 -77.24975089 152.37253102 -91.95703125 151.90625 C-92.63121094 151.9371875 -93.30539063 151.968125 -94 152 Z " fill="#8C4C33" transform="translate(328,8)"/>
<path d="M0 0 C4.41074704 -0.09961729 8.82088095 -0.17181669 13.23242188 -0.21972656 C14.7299339 -0.23971919 16.22736908 -0.26692299 17.72460938 -0.30175781 C27.44166575 -0.52201109 34.36952216 -0.37926054 42.35546875 5.83203125 C48.37448671 12.33873084 50.93315843 19.54637766 53 28 C53.16371094 28.66080566 53.32742188 29.32161133 53.49609375 30.00244141 C64.6446519 77.57960433 46.57800812 127.75854818 22 168 C21.45214844 167.72414062 20.90429688 167.44828125 20.33984375 167.1640625 C19.56769531 166.77992188 18.79554688 166.39578125 18 166 C17.15566406 165.57460937 16.31132812 165.14921875 15.44140625 164.7109375 C7.12039943 160.84962904 -0.42479084 159.41862058 -9.46875 161.59375 C-17.21486724 164.53945656 -24.80273049 170.78673849 -28.5 178.25 C-30.6390895 183.93069522 -31.29544773 190.00203525 -32 196 C-38.75 194.25 -38.75 194.25 -41 192 C-41.47104663 190.15889701 -41.87867296 188.3012761 -42.25 186.4375 C-44.86745117 175.64534913 -50.79895239 169.03619351 -60 163 C-69.68590496 157.48883463 -81.71080849 153 -93 153 C-92.20980469 153.50144531 -91.41960937 154.00289062 -90.60546875 154.51953125 C-82.64683651 159.78247837 -75.80278375 165.81168147 -69.0625 172.5625 C-68.27061279 173.35309814 -67.47872559 174.14369629 -66.6628418 174.95825195 C-53 188.87466964 -53 188.87466964 -53 193 C-53.58007812 193.17015625 -54.16015625 193.3403125 -54.7578125 193.515625 C-59.76599518 195.06931864 -63.75991159 196.8199337 -68 200 C-68.845625 200.556875 -69.69125 201.11375 -70.5625 201.6875 C-74.9299161 205.83094604 -77.457541 211.05352946 -79.0625 216.8125 C-81.82839042 221.36283585 -85.2213253 221.91654013 -90.1875 223.37109375 C-93 224 -93 224 -96 224 C-94.92385501 220.41285005 -93.61483178 217.11210805 -91.921875 213.78125 C-91.5619043 213.07033203 -91.20193359 212.35941406 -90.83105469 211.62695312 C-90.55680664 211.09005859 -90.28255859 210.55316406 -90 210 C-91.04454346 210.42410156 -92.08908691 210.84820312 -93.1652832 211.28515625 C-97.03768927 212.85582313 -100.91282139 214.41966327 -104.78881836 215.98144531 C-106.46665508 216.65861807 -108.14374466 217.33764509 -109.82006836 218.01855469 C-112.22836849 218.99641435 -114.63926834 219.96759519 -117.05078125 220.9375 C-117.80087967 221.24373291 -118.55097809 221.54996582 -119.32380676 221.86547852 C-122.36012991 223.08040064 -124.69783464 224 -128 224 C-128.33 216.74 -128.66 209.48 -129 202 C-132.98421425 204.32840356 -136.96797771 206.65754704 -140.95068359 208.98852539 C-142.30232235 209.77931618 -143.65420507 210.56969014 -145.00634766 211.35961914 C-146.96322787 212.50294051 -148.91927004 213.64768106 -150.875 214.79296875 C-151.50575439 215.16163055 -152.13650879 215.53029236 -152.78637695 215.91012573 C-156.15621151 217.88761443 -159.47283264 219.92377359 -162.75 222.05078125 C-166 224 -166 224 -169 224 C-169.31022095 222.74340576 -169.31022095 222.74340576 -169.62670898 221.46142578 C-170.39451449 218.35613655 -171.16443171 215.25138085 -171.93579102 212.14697266 C-172.26932295 210.80278215 -172.60201018 209.45838176 -172.93383789 208.11376953 C-173.41070441 206.1820681 -173.89085289 204.2511778 -174.37109375 202.3203125 C-174.8031311 200.57645264 -174.8031311 200.57645264 -175.24389648 198.79736328 C-175.88125691 196.07220275 -175.88125691 196.07220275 -177 194 C-177.59425781 194.4532666 -178.18851562 194.9065332 -178.80078125 195.37353516 C-181.53360431 197.45768462 -184.26679969 199.54134529 -187 201.625 C-187.93457031 202.33785156 -188.86914062 203.05070313 -189.83203125 203.78515625 C-191.67965477 205.19348467 -193.5285939 206.60008894 -195.37890625 208.00488281 C-197.05881351 209.28359016 -198.73378082 210.56882928 -200.40234375 211.86230469 C-201.11519531 212.41047852 -201.82804687 212.95865234 -202.5625 213.5234375 C-203.18253906 214.00474121 -203.80257812 214.48604492 -204.44140625 214.98193359 C-206 216 -206 216 -208 216 C-208 205.77 -208 195.54 -208 185 C-210.63613281 186.0828125 -213.27226562 187.165625 -215.98828125 188.28125 C-218.5394464 189.32498781 -221.09133947 190.36692593 -223.64331055 191.40869141 C-225.41816934 192.1343494 -227.19226389 192.86187951 -228.96557617 193.59130859 C-231.51282922 194.63871055 -234.06274378 195.67937607 -236.61328125 196.71875 C-237.40712723 197.04685669 -238.20097321 197.37496338 -239.01887512 197.7130127 C-244.65838488 200 -244.65838488 200 -248 200 C-247.36032232 193.69145459 -246.04374602 187.75303103 -244.4375 181.625 C-243.97580154 179.84688857 -243.51606515 178.06826615 -243.05859375 176.2890625 C-242.85548584 175.51256348 -242.65237793 174.73606445 -242.44311523 173.93603516 C-241.9256305 172.00608504 -241.9256305 172.00608504 -242 170 C-242.73249466 170.27783829 -243.46498932 170.55567657 -244.21968079 170.8419342 C-251.11714754 173.45628986 -258.01788719 176.06172001 -264.92249775 178.65714359 C-268.47226939 179.99185239 -272.0206656 181.32999699 -275.56616211 182.67602539 C-278.98662781 183.97444192 -282.41038406 185.26379031 -285.83662987 186.54687309 C-287.14440854 187.03843956 -288.45096011 187.53328328 -289.75625038 188.03141975 C-291.5820413 188.72756004 -293.41262824 189.41108236 -295.2434082 190.09399414 C-296.28487503 190.48704239 -297.32634186 190.88009064 -298.39936829 191.28504944 C-301 192 -301 192 -304 191 C-298.72775533 185.54862504 -293.42695703 180.12619675 -288.10644531 174.72192383 C-286.30402741 172.88454663 -284.50797027 171.04090519 -282.71875 169.19067383 C-263.72486677 149.56613432 -263.72486677 149.56613432 -251 145 C-249.53723633 144.42125122 -249.53723633 144.42125122 -248.04492188 143.83081055 C-245.23860439 142.7601937 -242.42035456 141.79848813 -239.5625 140.875 C-238.54462402 140.54226074 -237.52674805 140.20952148 -236.47802734 139.86669922 C-194.91206005 126.65600895 -148.68693919 124.50928944 -108.75 144.09375 C-106.12776746 145.28282679 -106.12776746 145.28282679 -104.11230469 144.25585938 C-99.96101169 141.78773048 -96.13696937 138.85924778 -92.25 136 C-91.36183594 135.35804688 -90.47367188 134.71609375 -89.55859375 134.0546875 C-88.71941406 133.43851563 -87.88023437 132.82234375 -87.015625 132.1875 C-85.85981934 131.34251953 -85.85981934 131.34251953 -84.68066406 130.48046875 C-84.12604492 129.99191406 -83.57142578 129.50335938 -83 129 C-83 128.34 -83 127.68 -83 127 C-85.49854767 126.34807312 -87.9986137 125.70336936 -90.5 125.0625 C-91.19609375 124.88009766 -91.8921875 124.69769531 -92.609375 124.50976562 C-100.86301817 122.40814352 -109.02020371 121.8134212 -117.5 121.4375 C-118.87671875 121.37272461 -118.87671875 121.37272461 -120.28125 121.30664062 C-122.52072061 121.20166544 -124.76028092 121.09950752 -127 121 C-127 120.01 -127 119.02 -127 118 C-125.07226563 116.37426758 -125.07226563 116.37426758 -122.40625 114.64453125 C-121.45878906 114.02255859 -120.51132813 113.40058594 -119.53515625 112.75976562 C-118.53355469 112.11716797 -117.53195313 111.47457031 -116.5 110.8125 C-115.49839844 110.15830078 -114.49679688 109.50410156 -113.46484375 108.83007812 C-110.98247558 107.21062842 -108.49417281 105.60118566 -106 104 C-113.17351791 96.29790709 -121.20103995 95.58740676 -131.41796875 95.05078125 C-140.94252516 94.83505691 -150.49292628 95.47911299 -160 96 C-156.04805802 91.7701871 -151.75709948 88.52994829 -147 85.25 C-146.25177979 84.72921875 -145.50355957 84.2084375 -144.73266602 83.671875 C-143.21262868 82.6145704 -141.69123659 81.55921065 -140.16845703 80.50585938 C-138.19571706 79.1359134 -136.23427003 77.75177256 -134.27734375 76.359375 C-120.56837637 66.64011139 -108.86319498 62.43681621 -92 64 C-74.43244927 67.38773784 -60.67390471 81.26733519 -48 93 C-47.40832031 93.5259375 -46.81664062 94.051875 -46.20703125 94.59375 C-28.96036314 110.65240535 -17.89061379 133.83194621 -15 157 C-13.30025431 155.58186898 -11.61987068 154.14954898 -9.9609375 152.68359375 C-8 151 -8 151 -6.1640625 149.72265625 C-4.246271 148.24154497 -3.20179233 147.11652 -2 145 C-1.55896029 134.92135682 -4.15455648 124.5052377 -5.91870117 114.63134766 C-6.26434219 112.68475485 -6.60294922 110.73691725 -6.94140625 108.7890625 C-7.14451416 107.65162598 -7.34762207 106.51418945 -7.55688477 105.34228516 C-8 102 -8 102 -8 95 C-3.38 92.69 1.24 90.38 6 88 C4.57014016 83.71042048 3.20644126 80.19234977 1.1796875 76.234375 C0.37724609 74.65269531 0.37724609 74.65269531 -0.44140625 73.0390625 C-0.99699219 71.95367187 -1.55257813 70.86828125 -2.125 69.75 C-3.23541663 67.57998673 -4.3423767 65.40820004 -5.4453125 63.234375 C-5.93531738 62.27756836 -6.42532227 61.32076172 -6.93017578 60.33496094 C-8 58 -8 58 -8 56 C2.23 56 12.46 56 23 56 C19.25569925 38.41806603 12.07117824 23.0842433 3.09912109 7.55908203 C0 2.18521838 0 2.18521838 0 0 Z " fill="#A9CA01" transform="translate(328,8)"/>
<path d="M0 0 C32.91989334 9.76393775 63.05125625 11.52234219 96.578125 3.140625 C102.0254582 1.84953629 107.51165028 0.76176191 113 -0.33984375 C114.07515869 -0.55825928 115.15031738 -0.7766748 116.25805664 -1.00170898 C138.65357337 -5.48011503 161.22005068 -5.40096444 183.30761719 0.51464844 C187.51877654 1.64133705 191.75028318 2.68329138 195.98095703 3.73388672 C198.0595364 4.25329417 200.13619143 4.78048899 202.21044922 5.31689453 C224.86348647 11.14595034 247.85649405 8.09238824 270.71972656 5.06396484 C292.27289494 2.254771 317.16643912 0.604449 336.1875 13.28515625 C336.1875 24.17515625 336.1875 35.06515625 336.1875 46.28515625 C172.1775 46.28515625 8.1675 46.28515625 -160.8125 46.28515625 C-160.8125 40.34515625 -160.8125 34.40515625 -160.8125 28.28515625 C-157.8115625 27.79015625 -157.8115625 27.79015625 -154.75 27.28515625 C-140.75871351 24.20399206 -130.27553776 16.35124524 -119.08886719 7.79833984 C-81.08324201 -21.24975515 -42.65282907 -12.66537066 0 0 Z " fill="#EABE9C" transform="translate(167.8125,457.71484375)"/>
<path d="M0 0 C2.46047727 2.17628841 4.87046264 4.39235086 7.2578125 6.6484375 C7.96679688 7.31617188 8.67578125 7.98390625 9.40625 8.671875 C14.18931574 13.30833336 18.29517925 18.29888261 22.2578125 23.6484375 C21.66033203 24.71771484 21.66033203 24.71771484 21.05078125 25.80859375 C20.52097656 26.76636719 19.99117187 27.72414062 19.4453125 28.7109375 C18.88457031 29.71382813 18.32382813 30.71671875 17.74609375 31.75 C16.53698196 34.10475314 15.80978924 36.06516231 15.1328125 38.5859375 C12.41258537 43.02897514 8.92967728 43.59626142 4.0703125 45.01953125 C1.2578125 45.6484375 1.2578125 45.6484375 -1.7421875 45.6484375 C-0.66604251 42.06128755 0.64298072 38.76054555 2.3359375 35.4296875 C2.6959082 34.71876953 3.05587891 34.00785156 3.42675781 33.27539062 C3.70100586 32.73849609 3.97525391 32.20160156 4.2578125 31.6484375 C3.21326904 32.07253906 2.16872559 32.49664062 1.0925293 32.93359375 C-2.77987677 34.50426063 -6.65500889 36.06810077 -10.53100586 37.62988281 C-12.20884258 38.30705557 -13.88593216 38.98608259 -15.56225586 39.66699219 C-17.97055599 40.64485185 -20.38145584 41.61603269 -22.79296875 42.5859375 C-23.54306717 42.89217041 -24.29316559 43.19840332 -25.06599426 43.51391602 C-28.10231741 44.72883814 -30.44002214 45.6484375 -33.7421875 45.6484375 C-34.0721875 38.3884375 -34.4021875 31.1284375 -34.7421875 23.6484375 C-38.72640175 25.97684106 -42.71016521 28.30598454 -46.69287109 30.63696289 C-48.04450985 31.42775368 -49.39639257 32.21812764 -50.74853516 33.00805664 C-52.70541537 34.15137801 -54.66145754 35.29611856 -56.6171875 36.44140625 C-57.24794189 36.81006805 -57.87869629 37.17872986 -58.52856445 37.55856323 C-61.89839901 39.53605193 -65.21502014 41.57221109 -68.4921875 43.69921875 C-71.7421875 45.6484375 -71.7421875 45.6484375 -74.7421875 45.6484375 C-74.94900146 44.81070801 -75.15581543 43.97297852 -75.36889648 43.10986328 C-76.13670199 40.00457405 -76.90661921 36.89981835 -77.67797852 33.79541016 C-78.01151045 32.45121965 -78.34419768 31.10681926 -78.67602539 29.76220703 C-79.15289191 27.8305056 -79.63304039 25.8996153 -80.11328125 23.96875 C-80.40130615 22.80617676 -80.68933105 21.64360352 -80.98608398 20.44580078 C-81.62344441 17.72064025 -81.62344441 17.72064025 -82.7421875 15.6484375 C-83.33644531 16.1017041 -83.93070312 16.5549707 -84.54296875 17.02197266 C-87.27579181 19.10612212 -90.00898719 21.18978279 -92.7421875 23.2734375 C-94.14404297 24.34271484 -94.14404297 24.34271484 -95.57421875 25.43359375 C-97.42184227 26.84192217 -99.2707814 28.24852644 -101.12109375 29.65332031 C-102.80100101 30.93202766 -104.47596832 32.21726678 -106.14453125 33.51074219 C-106.85738281 34.05891602 -107.57023437 34.60708984 -108.3046875 35.171875 C-108.92472656 35.65317871 -109.54476562 36.13448242 -110.18359375 36.63037109 C-111.7421875 37.6484375 -111.7421875 37.6484375 -113.7421875 37.6484375 C-113.7421875 27.4184375 -113.7421875 17.1884375 -113.7421875 6.6484375 C-116.37832031 7.73125 -119.01445313 8.8140625 -121.73046875 9.9296875 C-124.2816339 10.97342531 -126.83352697 12.01536343 -129.38549805 13.05712891 C-131.16035684 13.7827869 -132.93445139 14.51031701 -134.70776367 15.23974609 C-137.25501672 16.28714805 -139.80493128 17.32781357 -142.35546875 18.3671875 C-143.14931473 18.69529419 -143.94316071 19.02340088 -144.76106262 19.3614502 C-150.40057238 21.6484375 -150.40057238 21.6484375 -153.7421875 21.6484375 C-153.10250982 15.33989209 -151.78593352 9.40146853 -150.1796875 3.2734375 C-149.71798904 1.49532607 -149.25825265 -0.28329635 -148.80078125 -2.0625 C-148.49611938 -3.22724854 -148.49611938 -3.22724854 -148.18530273 -4.41552734 C-147.667818 -6.34547746 -147.667818 -6.34547746 -147.7421875 -8.3515625 C-148.47468216 -8.07372421 -149.20717682 -7.79588593 -149.96186829 -7.5096283 C-156.85933504 -4.89527264 -163.76007469 -2.28984249 -170.66468525 0.30558109 C-174.21445689 1.64028989 -177.7628531 2.97843449 -181.30834961 4.32446289 C-184.72881531 5.62287942 -188.15257156 6.91222781 -191.57881737 8.19531059 C-192.88659604 8.68687706 -194.19314761 9.18172078 -195.49843788 9.67985725 C-197.3242288 10.37599754 -199.15481574 11.05951986 -200.9855957 11.74243164 C-202.02706253 12.13547989 -203.06852936 12.52852814 -204.14155579 12.93348694 C-206.7421875 13.6484375 -206.7421875 13.6484375 -209.7421875 12.6484375 C-180.92326878 -18.60641063 -180.92326878 -18.60641063 -163.89306641 -22.80273438 C-161.83805951 -23.32709936 -159.89782392 -23.97495625 -157.91015625 -24.7109375 C-104.84624354 -43.60280171 -43.24959765 -37.0886863 0 0 Z " fill="#A9CA00" transform="translate(233.7421875,186.3515625)"/>
<path d="M0 0 C28.45645207 0.62479236 58.23234511 13.99170897 77.875 34.46484375 C91.60080345 50.83992912 98.50736344 70.50412931 97.21142578 91.87548828 C95.85728465 105.48257385 88.25785097 116.58922808 80.25 127.1875 C79.67064697 127.95545898 79.09129395 128.72341797 78.49438477 129.51464844 C77.66958618 130.58054199 77.66958618 130.58054199 76.828125 131.66796875 C76.3321582 132.31016357 75.83619141 132.9523584 75.32519531 133.61401367 C74.88788086 134.07138916 74.45056641 134.52876465 74 135 C73.34 135 72.68 135 72 135 C71.68977905 133.43318481 71.68977905 133.43318481 71.37329102 131.8347168 C70.60555029 127.95981576 69.83526481 124.08542425 69.06420898 120.21118164 C68.73083155 118.53423635 68.39814462 116.85715364 68.06616211 115.17993164 C67.58889277 112.76932913 67.10914336 110.35923155 66.62890625 107.94921875 C66.48095108 107.19912033 66.33299591 106.44902191 66.18055725 105.67619324 C65.58786013 102.71206843 64.95707021 99.87121062 64 97 C63.34402832 97.66644531 62.68805664 98.33289063 62.01220703 99.01953125 C59.58227326 101.48349529 57.14793959 103.9429342 54.71044922 106.39941406 C53.65525491 107.4646826 52.60186036 108.53173697 51.55029297 109.60058594 C50.04080273 111.13426216 48.52501301 112.66145568 47.0078125 114.1875 C46.09660645 115.10917969 45.18540039 116.03085937 44.24658203 116.98046875 C42 119 42 119 40 119 C39.68977905 117.43318481 39.68977905 117.43318481 39.37329102 115.8347168 C38.60555029 111.95981576 37.83526481 108.08542425 37.06420898 104.21118164 C36.73083155 102.53423635 36.39814462 100.85715364 36.06616211 99.17993164 C35.58889277 96.76932913 35.10914336 94.35923155 34.62890625 91.94921875 C34.48095108 91.19912033 34.33299591 90.44902191 34.18055725 89.67619324 C33.58786013 86.71206843 32.95707021 83.87121062 32 81 C31.37432129 81.42410156 30.74864258 81.84820312 30.10400391 82.28515625 C27.28086556 84.19488001 24.4530201 86.09751375 21.625 88 C20.64015625 88.66773438 19.6553125 89.33546875 18.640625 90.0234375 C17.69960938 90.65507812 16.75859375 91.28671875 15.7890625 91.9375 C14.91975098 92.52402344 14.05043945 93.11054688 13.15478516 93.71484375 C11 95 11 95 9 95 C8.67 85.1 8.34 75.2 8 65 C1.1755518 69.60238975 1.1755518 69.60238975 -5.64208984 74.21484375 C-6.48980957 74.78332031 -7.3375293 75.35179687 -8.2109375 75.9375 C-9.08024902 76.52402344 -9.94956055 77.11054688 -10.84521484 77.71484375 C-13 79 -13 79 -15 79 C-15 68.77 -15 58.54 -15 48 C-21.73324464 50.29704392 -21.73324464 50.29704392 -28.46191406 52.60742188 C-29.30463867 52.89166016 -30.14736328 53.17589844 -31.015625 53.46875 C-31.87446289 53.76201172 -32.73330078 54.05527344 -33.61816406 54.35742188 C-36 55 -36 55 -40 55 C-40.50354867 52.56318413 -41.00296756 50.12564561 -41.5 47.6875 C-41.64308594 46.99720703 -41.78617187 46.30691406 -41.93359375 45.59570312 C-42.52625044 42.67475227 -43 39.98891878 -43 37 C-41.92298828 37.23976563 -41.92298828 37.23976563 -40.82421875 37.484375 C-30.60484032 39.35015363 -21.17819598 37.70782304 -12.25 32.4375 C-5.68513197 27.77818658 -2.07920293 20.64610108 0 13 C0.23964886 9.56932474 0.23964886 9.56932474 0.125 6.125 C0.10695313 4.97257813 0.08890625 3.82015625 0.0703125 2.6328125 C0.04710937 1.76398438 0.02390625 0.89515625 0 0 Z " fill="#A9CA00" transform="translate(367,249)"/>
<path d="M0 0 C6.53602338 0.51600185 9.44332695 2.72166348 16 6 C16 16.89 16 27.78 16 39 C-148.01 39 -312.02 39 -481 39 C-481 33.06 -481 27.12 -481 21 C-479.02 21 -477.04 21 -475 21 C-475 21.33 -475 21.66 -475 22 C-415.46468488 22.06861798 -355.92937038 22.12151036 -296.39402415 22.15319599 C-289.37051147 22.15693807 -282.34699888 22.16082773 -275.32348633 22.16479492 C-274.27508745 22.16538334 -274.27508745 22.16538334 -273.2055088 22.16598364 C-250.54159889 22.17877299 -227.87771138 22.20131087 -205.21381505 22.22889166 C-181.26849936 22.25797902 -157.32319835 22.27598482 -133.37786549 22.28226548 C-119.0288543 22.28638849 -104.67990742 22.29942581 -90.33091601 22.3237494 C-80.50061834 22.33956759 -70.67035408 22.34440927 -60.8400446 22.34050413 C-55.16255896 22.33857647 -49.48518596 22.34159857 -43.80772018 22.35761642 C-38.61449495 22.37216162 -33.42145863 22.37298748 -28.2282249 22.36269668 C-26.34523747 22.36142387 -24.46223849 22.36527486 -22.57927398 22.37464955 C-20.02733852 22.38662044 -17.47609259 22.38024194 -14.92416859 22.36914349 C-13.81762069 22.38096505 -13.81762069 22.38096505 -12.68871829 22.39302543 C-8.30758617 22.34972075 -5.44366257 21.77264939 -2 19 C-0.76240177 15.28720531 -0.64391103 11.68693654 -0.4375 7.8125 C-0.39431641 7.06291016 -0.35113281 6.31332031 -0.30664062 5.54101562 C-0.20077315 3.69421625 -0.0999024 1.84713166 0 0 Z " fill="#DF9C70" transform="translate(488,465)"/>
<path d="M0 0 C2.66566329 2.27386937 5.26643166 4.59039212 7.828125 6.98046875 C9.73204605 8.75084138 11.67891151 10.41385768 13.6875 12.0625 C17.54957156 15.35608906 20.76140661 19.10399983 24 23 C24.68578125 23.79792969 25.3715625 24.59585938 26.078125 25.41796875 C26.77421875 26.24941406 27.4703125 27.08085937 28.1875 27.9375 C29.13689453 29.06478516 29.13689453 29.06478516 30.10546875 30.21484375 C30.73066406 31.13394531 31.35585938 32.05304688 32 33 C32.36915527 33.53890869 32.73831055 34.07781738 33.11865234 34.63305664 C37.70549507 42.77921629 36.42649954 52.53188453 36.25 61.5625 C36.22990747 63.35219359 36.21166156 65.14190892 36.1953125 66.93164062 C36.15152721 71.28830278 36.08265224 75.64390894 36 80 C32.98556985 78.59213375 30.40330773 76.93552319 27.734375 74.953125 C26.92613281 74.355 26.11789062 73.756875 25.28515625 73.140625 C24.44855469 72.51671875 23.61195313 71.8928125 22.75 71.25 C21.92886719 70.6415625 21.10773438 70.033125 20.26171875 69.40625 C15.16052966 65.62280072 10.07707253 61.81573182 5 58 C2.18320635 59.27774425 0.18559473 60.58399454 -1.9453125 62.8203125 C-2.46480469 63.35527344 -2.98429687 63.89023438 -3.51953125 64.44140625 C-4.04933594 64.99699219 -4.57914062 65.55257812 -5.125 66.125 C-7.04571432 68.13783491 -8.98429507 70.07832212 -11 72 C-11.66 72 -12.32 72 -13 72 C-20.425 57.15 -20.425 57.15 -28 42 C-32.74920687 46.07074875 -37.02842816 49.97874389 -41.30078125 54.4609375 C-43 56 -43 56 -45 56 C-49.95 46.1 -54.9 36.2 -60 26 C-64.81082395 30.12356338 -68.87353412 33.90109757 -73.0078125 38.55859375 C-75 40 -75 40 -77.18603516 39.79248047 C-80.65779408 38.8147493 -83.7952807 37.35526853 -87.015625 35.76171875 C-87.67205994 35.43967972 -88.32849487 35.11764069 -89.00482178 34.7858429 C-90.38469309 34.10565488 -91.76294551 33.4221739 -93.13964844 32.7355957 C-95.25030797 31.68734705 -97.37070692 30.66090055 -99.4921875 29.63476562 C-100.83398412 28.9700621 -102.1751531 28.30408974 -103.515625 27.63671875 C-104.15099182 27.33239426 -104.78635864 27.02806976 -105.440979 26.71452332 C-109.75350342 24.52448475 -109.75350342 24.52448475 -110.96313477 21.95068359 C-111.01739097 19.07977586 -109.92208299 16.70589445 -109 14 C-108.51550335 7.30737677 -108.77242567 0.598212 -110 -6 C-74.74226989 -30.32063832 -32.66021689 -26.51058744 0 0 Z " fill="#A9CA00" transform="translate(468,192)"/>
<path d="M0 0 C8.65429741 3.26907693 13.12242537 8.72360301 17 17 C17.78079288 19.70981059 17.95710518 22.19038907 18 25 C18.0721875 25.75796875 18.144375 26.5159375 18.21875 27.296875 C18.76938993 35.94192191 15.57878326 43.96401687 10.4375 50.875 C4.6233298 57.05255584 -4.24496966 60.54657337 -12.578125 61.203125 C-22.63324903 61.37953068 -29.05133817 59.00205077 -37 53 C-37.66 53 -38.32 53 -39 53 C-69.49675106 107.83078987 -98.58334822 170.19016009 -82 234 C-98.95150897 238.529553 -117.41394584 242.15108718 -135 241 C-137.09950199 231.23629656 -138.18776113 221.99306462 -138 212 C-127.48063576 211.63113918 -118.24569094 212.31050613 -108 215 C-108.04640625 213.71351563 -108.0928125 212.42703125 -108.140625 211.1015625 C-109.37674478 160.84055488 -90.18065085 110.8696465 -67.45629883 66.83227539 C-66.88935303 65.73133545 -66.32240723 64.63039551 -65.73828125 63.49609375 C-65.23337158 62.52857178 -64.72846191 61.5610498 -64.20825195 60.56420898 C-60.71453776 53.14968481 -61.62937813 44.88107576 -63 37 C-64.485 36.505 -64.485 36.505 -66 36 C-65.38253906 35.85304688 -64.76507813 35.70609375 -64.12890625 35.5546875 C-57.35592307 33.7609294 -51.04307953 31.04307953 -46 26 C-45.63239269 23.67182036 -45.29758419 21.3381615 -45 19 C-41.48560887 17.82853629 -39.77758195 18.58226804 -36.30078125 19.50390625 C-27.14212206 21.47869355 -19.79338242 19.29872309 -11.8046875 14.75 C-6.11954866 10.94549644 -3.12615666 5.99180026 0 0 Z " fill="#93583F" transform="translate(350,227)"/>
<path d="M0 0 C4.19889809 13.75559014 0.41278993 22.56284078 -6.00952148 34.88916016 C-11.40906198 45.25309391 -16.13608501 55.77103242 -20.4375 66.625 C-20.92089844 67.84413086 -21.40429688 69.06326172 -21.90234375 70.31933594 C-30.96820259 93.49393761 -37.99578575 116.5508275 -41.57519531 141.20849609 C-42.02098024 144.13786673 -42.5436879 147.04830219 -43.06640625 149.96484375 C-44.06392354 155.89285052 -44.42928718 161.74814011 -44.625 167.75 C-44.66367188 168.74515625 -44.70234375 169.7403125 -44.7421875 170.765625 C-44.83492952 173.17691764 -44.92080951 175.58823101 -45 178 C-45.90878906 177.85691406 -46.81757813 177.71382812 -47.75390625 177.56640625 C-53.12596794 176.79896887 -58.53166423 176.390503 -63.9375 175.9375 C-65.00291016 175.84662109 -66.06832031 175.75574219 -67.16601562 175.66210938 C-69.77719846 175.43963191 -72.38852175 175.21897785 -75 175 C-78.97365546 145.21347869 -73.18069031 113.35368191 -64 85 C-63.71672852 84.12021484 -63.43345703 83.24042969 -63.14160156 82.33398438 C-54.44086606 55.81837275 -41.27204955 30.41354294 -23.3671875 8.91796875 C-21.02468506 6.1635895 -21.02468506 6.1635895 -19.5078125 3.55078125 C-15.09216269 -3.42923661 -7.14730251 -1.08209796 0 0 Z " fill="#93604B" transform="translate(287,264)"/>
<path d="M0 0 C3.175056 1.68972937 6.26485488 1.77827906 9.8203125 1.96875 C8.8303125 2.62875 7.8403125 3.28875 6.8203125 3.96875 C7.61050781 4.47019531 8.40070313 4.97164062 9.21484375 5.48828125 C17.17347599 10.75122837 24.01752875 16.78043147 30.7578125 23.53125 C31.54969971 24.32184814 32.34158691 25.11244629 33.1574707 25.92700195 C46.8203125 39.84341964 46.8203125 39.84341964 46.8203125 43.96875 C46.24023438 44.13890625 45.66015625 44.3090625 45.0625 44.484375 C40.03175761 46.04506736 36.15956898 47.91154657 31.8203125 50.96875 C30.16506216 51.66327756 28.49968116 52.33476015 26.8203125 52.96875 C26.14226562 52.14632812 25.46421875 51.32390625 24.765625 50.4765625 C0.08558544 20.7575883 -32.51110864 0.29782633 -71.5559082 -3.51318359 C-88.83299715 -4.93642838 -105.7273263 -4.30856698 -122.81542969 -1.42822266 C-124.85192131 -1.08628385 -126.89433088 -0.77993533 -128.9375 -0.48046875 C-142.74803976 1.83177424 -158.01742481 6.18065331 -170.42749023 12.66601562 C-171.33571533 13.09591797 -172.24394043 13.52582031 -173.1796875 13.96875 C-173.8396875 13.63875 -174.4996875 13.30875 -175.1796875 12.96875 C-155.83872697 -9.17976932 -119.18539272 -16.3671851 -90.88671875 -18.75 C-60.17601767 -20.81014593 -26.20136697 -17.69442964 0 0 Z " fill="#81B817" transform="translate(228.1796875,157.03125)"/>
<path d="M0 0 C28.45645207 0.62479236 58.23234511 13.99170897 77.875 34.46484375 C91.60080345 50.83992912 98.50736344 70.50412931 97.21142578 91.87548828 C95.85728465 105.48257385 88.25785097 116.58922808 80.25 127.1875 C79.67064697 127.95545898 79.09129395 128.72341797 78.49438477 129.51464844 C77.66958618 130.58054199 77.66958618 130.58054199 76.828125 131.66796875 C76.3321582 132.31016357 75.83619141 132.9523584 75.32519531 133.61401367 C74.88788086 134.07138916 74.45056641 134.52876465 74 135 C73.34 135 72.68 135 72 135 C71.13167552 130.9195446 70.28280772 126.8352803 69.4375 122.75 C69.19064453 121.59113281 68.94378906 120.43226563 68.68945312 119.23828125 C68.46064453 118.12324219 68.23183594 117.00820313 67.99609375 115.859375 C67.78138428 114.83295898 67.5666748 113.80654297 67.34545898 112.74902344 C66.83753923 108.70720267 67.99642464 105.87877751 69.5 102.1875 C75.20224983 87.02786021 71.8568349 69.95991135 65.6328125 55.546875 C61.95498274 47.5577137 57.61097507 41.18004877 51.5390625 34.8125 C50 33 50 33 50 31 C49.42378906 30.7421875 48.84757812 30.484375 48.25390625 30.21875 C45.80373662 28.89387492 44.02173366 27.34592746 41.9375 25.5 C31.46824458 17.01974892 18.67088285 10.95053962 5.81201172 7.06396484 C3.9296875 6.44921875 3.9296875 6.44921875 1 5 C0.0703125 2.33203125 0.0703125 2.33203125 0 0 Z " fill="#81B817" transform="translate(367,249)"/>
<path d="M0 0 C3.00099588 -0.10890711 5.99796378 -0.18773555 9 -0.25 C9.83917969 -0.28351562 10.67835938 -0.31703125 11.54296875 -0.3515625 C18.8068284 -0.46418048 23.64696052 1.3920804 29.35546875 5.83203125 C35.37448671 12.33873084 37.93315843 19.54637766 40 28 C40.24556641 28.9912085 40.24556641 28.9912085 40.49609375 30.00244141 C51.6446519 77.57960433 33.57800812 127.75854818 9 168 C8.43796875 167.71382812 7.8759375 167.42765625 7.296875 167.1328125 C4.97129077 165.98584069 2.62229799 164.92160206 0.25 163.875 C-0.54921875 163.52179688 -1.3484375 163.16859375 -2.171875 162.8046875 C-2.77515625 162.53914062 -3.3784375 162.27359375 -4 162 C-2.56729483 157.27280019 -0.57851188 152.99532028 1.6875 148.625 C11.39662414 129.49700622 19.03094716 110.13520639 23 89 C23.226875 87.85015625 23.45375 86.7003125 23.6875 85.515625 C27.38907587 63.2033482 28.68254825 30.21988768 15.25 10.5625 C11.11888434 5.51918367 5.73250039 2.85805878 0 0 Z " fill="#81B817" transform="translate(341,8)"/>
<path d="M0 0 C8.37465919 6.10050605 16.12149242 12.94742891 23.71875 19.98046875 C24.31042969 20.50640625 24.90210938 21.03234375 25.51171875 21.57421875 C42.05789595 36.98063552 53.35499495 59.42504382 56.359375 81.6875 C56.60346091 84.00266383 56.60346091 84.00266383 57.71875 85.98046875 C58.01171875 88.421875 58.01171875 88.421875 57.71875 90.98046875 C56.14453125 92.5703125 56.14453125 92.5703125 54.03125 93.91796875 C46.30439571 99.31450191 43.20253555 104.96432722 40.71875 113.98046875 C40.19540017 117.00717529 39.92016204 119.90893516 39.71875 122.98046875 C32.96875 121.23046875 32.96875 121.23046875 30.71875 118.98046875 C30.0859375 116.16015625 30.0859375 116.16015625 29.59375 112.85546875 C29.42617188 111.75976562 29.25859375 110.6640625 29.0859375 109.53515625 C28.96476562 108.69210938 28.84359375 107.8490625 28.71875 106.98046875 C29.8015625 106.28824219 29.8015625 106.28824219 30.90625 105.58203125 C36.19376685 102.03438003 36.19376685 102.03438003 39.5234375 96.8203125 C39.60825801 94.07307027 39.24297425 91.68251054 38.71875 88.98046875 C38.51636719 87.74296875 38.31398438 86.50546875 38.10546875 85.23046875 C32.12147448 52.99361757 9.03673511 27.41251363 -17.01977539 9.09423828 C-27.24305133 2.11165538 -36.39041823 -0.22866283 -48.71875 -0.08203125 C-49.45029297 -0.07751953 -50.18183594 -0.07300781 -50.93554688 -0.06835938 C-52.71748419 -0.05671273 -54.49937863 -0.03878316 -56.28125 -0.01953125 C-54.21981697 -2.24587892 -52.30437122 -3.72397153 -49.59375 -5.08203125 C-48.97113281 -5.40300781 -48.34851563 -5.72398438 -47.70703125 -6.0546875 C-31.38917783 -12.54504144 -14.32692322 -9.65420545 0 0 Z " fill="#81B817" transform="translate(256.28125,81.01953125)"/>
<path d="M0 0 C32.20100519 -1.00146667 56.15718224 6.89532444 79.828125 28.98046875 C81.73204605 30.75084138 83.67891151 32.41385768 85.6875 34.0625 C89.54957156 37.35608906 92.76140661 41.10399983 96 45 C96.68578125 45.79792969 97.3715625 46.59585938 98.078125 47.41796875 C98.77421875 48.24941406 99.4703125 49.08085937 100.1875 49.9375 C100.82042969 50.68902344 101.45335937 51.44054687 102.10546875 52.21484375 C102.73066406 53.13394531 103.35585938 54.05304688 104 55 C104.36915527 55.53890869 104.73831055 56.07781738 105.11865234 56.63305664 C109.70549507 64.77921629 108.42649954 74.53188453 108.25 83.5625 C108.22990747 85.35219359 108.21166156 87.14190892 108.1953125 88.93164062 C108.15152721 93.28830278 108.08265224 97.64390894 108 102 C104.92512169 100.5665096 102.28800851 98.85857432 99.55859375 96.84765625 C98.72779297 96.23599609 97.89699219 95.62433594 97.04101562 94.99414062 C96.18185547 94.35669922 95.32269531 93.71925781 94.4375 93.0625 C93.57447266 92.42892578 92.71144531 91.79535156 91.82226562 91.14257812 C84.82588943 85.97276168 84.82588943 85.97276168 82 83 C82.66 83 83.32 83 84 83 C83.61591136 66.44577982 80.7149817 57.02777122 69.44042969 44.59619141 C68.08768752 43.09716967 66.76533354 41.57088301 65.4453125 40.04296875 C59.81369555 33.6106906 53.78185361 28.19175799 47 23 C46.14921875 22.32195312 45.2984375 21.64390625 44.421875 20.9453125 C31.45658475 10.96902629 16.0235167 4.15216722 0 1 C0 0.67 0 0.34 0 0 Z " fill="#81B817" transform="translate(396,170)"/>
<path d="M0 0 C0.68707031 0.26425781 1.37414062 0.52851563 2.08203125 0.80078125 C3.75 1.5625 3.75 1.5625 6 4 C7.74243294 12.96108368 5.21134817 21.57680107 0.64453125 29.2890625 C-4.1614337 36.169452 -10.6725285 41.20493726 -19 43 C-29.93628557 44.48820865 -37.96916019 42.06162781 -47 36 C-49.67906732 33.20323307 -50.431151 31.29134538 -50.4375 27.4375 C-50.12483006 18.59154618 -47.04194769 11.16325701 -40.92578125 4.78515625 C-28.30209718 -6.91671722 -15.30772858 -7.80259409 0 0 Z " fill="#9E7058" transform="translate(346,173)"/>
<path d="M0 0 C1.11503906 -0.02578125 2.23007812 -0.0515625 3.37890625 -0.078125 C6.70287546 0.2784694 8.02337394 1.00704669 10.4375 3.25 C9.9425 4.36375 9.4475 5.4775 8.9375 6.625 C5.95912678 14.73358546 7.06136915 21.81100651 10.23828125 29.703125 C13.18179974 35.95450629 16.4683646 39.77957244 22.4375 43.25 C21.15422912 45.81654176 20.28893257 45.92462406 17.625 46.875 C9.1126848 49.50976423 0.86879593 49.22398771 -7.24609375 45.51171875 C-15.5791992 40.97277599 -21.32747339 35.56396892 -24.3125 26.4375 C-24.75251048 24.71412562 -25.16898301 22.98458146 -25.5625 21.25 C-25.91828125 19.95449219 -25.91828125 19.95449219 -26.28125 18.6328125 C-26.84399664 15.91011186 -27.0991618 13.98376438 -26.5625 11.25 C-19.82617454 3.19668506 -10.13457882 0.14092114 0 0 Z " fill="#985B3E" transform="translate(281.5625,199.75)"/>
<path d="M0 0 C11.23261955 -0.6877114 22.39888612 2.55119336 33 6 C30.84778514 13.60639992 28.23728416 20.98503137 25.4375 28.375 C24.83905273 29.97408203 24.83905273 29.97408203 24.22851562 31.60546875 C21.00975505 40.1494242 21.00975505 40.1494242 19 44 C14.57477641 43.49903129 10.24353224 42.86723455 5.875 42 C-0.70689897 40.75952959 -7.32101177 40.37051322 -14 40 C-13.39012936 34.12306479 -11.79865875 28.92669822 -9.8125 23.375 C-9.50368896 22.50069336 -9.19487793 21.62638672 -8.87670898 20.72558594 C-6.31799692 13.61012893 -3.37349099 6.7716962 0 0 Z " fill="#9D6F58" transform="translate(235,319)"/>
<path d="M0 0 C2.4375 0.75 2.4375 0.75 5 2 C5.78515625 3.6875 5.78515625 3.6875 6 6 C6.15275391 7.60875 6.15275391 7.60875 6.30859375 9.25 C6.66488783 19.61491872 4.88618567 27.33202462 -2.05078125 35.37890625 C-8.54069047 41.63826807 -15.55574403 45.14952126 -24.625 45.375 C-32.31002491 45.05028064 -38.58395025 43.32101309 -45 39 C-47.12390495 32.62828516 -46.13495783 25.5260075 -45 19 C-41.48560887 17.82853629 -39.77758195 18.58226804 -36.30078125 19.50390625 C-27.14212206 21.47869355 -19.79338242 19.29872309 -11.8046875 14.75 C-6.11954866 10.94549644 -3.12615666 5.99180026 0 0 Z " fill="#986954" transform="translate(350,227)"/>
<path d="M0 0 C10.21603301 -0.38632058 21.60376576 -0.69811712 31 4 C30.90912109 5.34964844 30.90912109 5.34964844 30.81640625 6.7265625 C30.05105049 18.47771706 29.50593057 30.23508074 29 42 C28.09121094 41.85691406 27.18242187 41.71382813 26.24609375 41.56640625 C20.87403206 40.79896887 15.46833577 40.390503 10.0625 39.9375 C8.99708984 39.84662109 7.93167969 39.75574219 6.83398438 39.66210938 C4.22280154 39.43963191 1.61147825 39.21897785 -1 39 C-2.349145 29.06344001 -2.14603377 19.30692397 -1.5625 9.3125 C-1.52334473 8.61705078 -1.48418945 7.92160156 -1.44384766 7.20507812 C-1.12244523 2.24489046 -1.12244523 2.24489046 0 0 Z " fill="#9E6F58" transform="translate(213,400)"/>
<path d="M0 0 C5.48036488 4.9852899 7.5587328 10.95585887 8.35546875 18.2578125 C8.60905887 28.47387147 6.85152598 36.96625127 0.23828125 44.953125 C-7.65567807 52.17203369 -17.0716607 54.37317907 -27.421875 54.27734375 C-32.34789226 53.89552364 -35.83549135 52.58570073 -40 50 C-40.69738281 49.57589844 -41.39476562 49.15179688 -42.11328125 48.71484375 C-48.20469959 44.5965402 -53.18282925 39.06167711 -54.66015625 31.71875 C-54.77230469 30.8215625 -54.88445312 29.924375 -55 29 C-53.51113281 29.86625 -53.51113281 29.86625 -51.9921875 30.75 C-42.18129766 36.210354 -33.76762659 39.40679945 -22.41015625 36.2890625 C-20.11051926 35.36920771 -18.10798132 34.29659199 -16 33 C-15.30261719 32.61070312 -14.60523438 32.22140625 -13.88671875 31.8203125 C-7.50916467 27.76077714 -4.41929014 22.04299926 -2 15 C-0.9059522 10.05159302 -0.40001152 5.04842122 0 0 Z " fill="#995B3F" transform="translate(352,178)"/>
<path d="M0 0 C0.33 0 0.66 0 1 0 C1.01981934 0.90129639 1.03963867 1.80259277 1.06005859 2.73120117 C1.1391009 6.14028291 1.22581203 9.54900386 1.31738281 12.95776367 C1.35519093 14.42090591 1.39011837 15.88412602 1.421875 17.34741211 C1.62763273 26.71903353 2.29437354 35.75334 4 45 C-6.41259821 47.83979951 -16.21577322 48.13806265 -27 48 C-29.09950199 38.23629656 -30.18776113 28.99306462 -30 19 C-19.40958986 18.62864796 -10.3456484 19.4135879 0 22 C0 14.74 0 7.48 0 0 Z " fill="#94614C" transform="translate(242,420)"/>
<path d="M0 0 C10.8713355 3.18892508 10.8713355 3.18892508 15 7 C15.34810003 11.81629891 14.72764134 16.14885358 13.72265625 20.8515625 C13.45646484 22.11484375 13.19027344 23.378125 12.91601562 24.6796875 C12.6316997 25.9948326 12.34719279 27.30993643 12.0625 28.625 C11.78124759 29.9477779 11.50064326 31.27069376 11.22070312 32.59375 C10.70515857 35.02364195 10.18668784 37.45291628 9.66430664 39.88134766 C9.08877733 42.58322615 8.54176994 45.2911503 8 48 C2.39 45.36 -3.22 42.72 -9 40 C-8.40934503 32.16106058 -6.94920419 24.81123274 -5.0625 17.1875 C-4.79759766 16.08212891 -4.53269531 14.97675781 -4.25976562 13.83789062 C-3.09853101 9.06904871 -1.91336383 4.53002649 0 0 Z " fill="#89513E" transform="translate(254,364)"/>
<path d="M0 0 C3.40838007 11.16585312 2.16821176 18.66357649 -3 29 C-6.8184415 28.48399439 -10.42941892 27.6214364 -14.125 26.5625 C-20.01836608 24.90879067 -25.95080412 23.89735017 -32 23 C-31.36899343 18.10672264 -27.89494501 14.65884395 -24.91674805 10.94873047 C-24.45953369 10.37912598 -24.00231934 9.80952148 -23.53125 9.22265625 C-23.08652344 8.66980957 -22.64179688 8.11696289 -22.18359375 7.54736328 C-20.87887638 5.90105089 -20.87887638 5.90105089 -19.53125 3.55859375 C-15.12321909 -3.43491683 -7.13650271 -1.08046288 0 0 Z " fill="#9D6F58" transform="translate(287,264)"/>
<path d="M0 0 C4.03846095 1.1918667 7.07593845 2.50850291 10.375 5.125 C11.06335938 5.66382813 11.75171875 6.20265625 12.4609375 6.7578125 C12.96882813 7.16773438 13.47671875 7.57765625 14 8 C13.44333845 12.25250358 12.44615651 15.62815256 10.56640625 19.4765625 C10.08236328 20.476875 9.59832031 21.4771875 9.09960938 22.5078125 C8.59236328 23.53648437 8.08511719 24.56515625 7.5625 25.625 C7.05912109 26.66140625 6.55574219 27.6978125 6.03710938 28.765625 C4.04773007 32.85534502 2.03862593 36.93460406 0 41 C-3.0478881 39.55260109 -5.82138128 37.87533024 -8.625 36 C-9.40101563 35.484375 -10.17703125 34.96875 -10.9765625 34.4375 C-13 33 -13 33 -15 31 C-10.42154878 20.40415574 -5.68396265 10.05350894 0 0 Z " fill="#89513E" transform="translate(283,294)"/>
<path d="M0 0 C1.32 0 2.64 0 4 0 C2.04236129 7.83055483 -2.19621266 13.17386625 -9 17.375 C-16.9132741 21.70845962 -23.93643439 23.42915102 -32.8671875 21.32421875 C-35.26943319 20.60626714 -37.63932559 19.84381553 -40 19 C-37.78633383 12.81273431 -35.13876824 7.09630854 -29 4 C-27.1953125 4.33203125 -27.1953125 4.33203125 -25 5 C-16.21775275 5.67470665 -8.83261475 5.24906552 -1 1 C-0.67 0.67 -0.34 0.34 0 0 Z " fill="#895240" transform="translate(346,226)"/>
<path d="M0 0 C8.57374222 1.95280463 18.40792069 5.8477481 24 13 C24.6875 15.6875 24.6875 15.6875 25 18 C17.67098882 19.80110167 10.52592433 21.3622098 3 22 C1.05789567 14.52058632 -0.39363688 7.74152536 0 0 Z " fill="#89523E" transform="translate(243,443)"/>
<path d="M0 0 C0.66 0.33 1.32 0.66 2 1 C-6.25 9.25 -14.5 17.5 -23 26 C-22.67 26.66 -22.34 27.32 -22 28 C-23.98 28.33 -25.96 28.66 -28 29 C-22.61359076 22.44622903 -16.64114873 16.52753365 -10.625 10.5625 C-9.59221405 9.53474017 -8.55966009 8.50674715 -7.52734375 7.47851562 C-5.02089713 4.98298402 -2.5113292 2.49061918 0 0 Z " fill="#A6B60B" transform="translate(52,171)"/>
<path d="M0 0 C2.625 0.375 2.625 0.375 5 1 C5.625 3.375 5.625 3.375 6 6 C5.34 6.66 4.68 7.32 4 8 C1.375 7.625 1.375 7.625 -1 7 C-1.625 4.625 -1.625 4.625 -2 2 C-1.34 1.34 -0.68 0.68 0 0 Z " fill="#C19485" transform="translate(346,242)"/>
<path d="M0 0 C1.66611905 -0.042721 3.33382885 -0.04063832 5 0 C6 1 6 1 6.0625 4.0625 C6.041875 5.031875 6.02125 6.00125 6 7 C3.625 7.625 3.625 7.625 1 8 C0.34 7.34 -0.32 6.68 -1 6 C-0.625 2.875 -0.625 2.875 0 0 Z " fill="#C39587" transform="translate(267,218)"/>
<path d="M0 0 C2.5 0.125 2.5 0.125 3.5 1.125 C3.6875 3.5625 3.6875 3.5625 3.5 6.125 C2.84 6.785 2.18 7.445 1.5 8.125 C-2.03571429 7.58928571 -2.03571429 7.58928571 -3.5 6.125 C-3.625 3.625 -3.625 3.625 -3.5 1.125 C-2.5 0.125 -2.5 0.125 0 0 Z " fill="#C39688" transform="translate(324.5,182.875)"/>
</svg>
